<svg xmlns="http://www.w3.org/2000/svg" width="701" height="701" fill="none"><g opacity=".6"><mask id="b" fill="#fff"><path d="M350.537 2.076c0-.905.733-1.639 1.638-1.635A350 350 0 0 1 700.533 348.8a1.632 1.632 0 0 1-1.635 1.638 1.644 1.644 0 0 1-1.642-1.638A346.725 346.725 0 0 0 352.175 3.719a1.644 1.644 0 0 1-1.638-1.643z"/></mask><path stroke="url(#a)" stroke-width="103.283" d="M350.537 2.076c0-.905.733-1.639 1.638-1.635A350 350 0 0 1 700.533 348.8a1.632 1.632 0 0 1-1.635 1.638 1.644 1.644 0 0 1-1.642-1.638A346.725 346.725 0 0 0 352.175 3.719a1.644 1.644 0 0 1-1.638-1.643z" mask="url(#b)"/></g><defs><linearGradient id="a" x1="350.537" x2="644.648" y1=".437" y2="286.456" gradientUnits="userSpaceOnUse"><stop offset=".06" stop-color="#ED597E"/><stop offset=".735" stop-opacity="0"/></linearGradient></defs></svg>