<svg xmlns="http://www.w3.org/2000/svg" width="840" height="840" fill="none"><mask id="b" fill="#fff"><path d="M419.895 17.124c0-9.272 7.52-16.824 16.785-16.453a419.722 419.722 0 0 1 402.888 412.797 419.737 419.737 0 0 1-44.073 193.925c-4.139 8.298-14.379 11.25-22.505 6.783-8.125-4.467-11.055-14.66-6.946-22.972a386.152 386.152 0 0 0-13.776-367.708A386.149 386.149 0 0 0 436.679 34.278c-9.263-.403-16.784-7.881-16.784-17.154z"/></mask><path stroke="url(#a)" stroke-width="100" d="M419.895 17.124c0-9.272 7.52-16.824 16.785-16.453a419.722 419.722 0 0 1 402.888 412.797 419.737 419.737 0 0 1-44.073 193.925c-4.139 8.298-14.379 11.25-22.505 6.783-8.125-4.467-11.055-14.66-6.946-22.972a386.152 386.152 0 0 0-13.776-367.708A386.149 386.149 0 0 0 436.679 34.278c-9.263-.403-16.784-7.881-16.784-17.154z" mask="url(#b)"/><defs><linearGradient id="a" x1="419.895" x2="772.597" y1=".335" y2="343.333" gradientUnits="userSpaceOnUse"><stop offset=".06" stop-color="#ED597D"/><stop offset="1" stop-opacity="0"/></linearGradient></defs></svg>