<svg xmlns="http://www.w3.org/2000/svg" width="54" height="54" fill="none"><path fill="url(#a)" d="m21.747 34.88 3.064-3.119-4.76-4.76 4.76-4.762-3.064-3.12L13.866 27l7.88 7.88zm10.507 0 7.88-7.88-7.88-7.88-3.065 3.12L33.951 27l-4.762 4.762 3.065 3.119zM11.677 46.703c-1.204 0-2.234-.428-3.091-1.285-.857-.857-1.286-1.888-1.287-3.093V11.677c0-1.204.429-2.234 1.287-3.091.858-.857 1.888-1.286 3.09-1.287h30.648c1.204 0 2.235.429 3.093 1.287.858.858 1.286 1.888 1.285 3.09v30.648c0 1.204-.428 2.235-1.285 3.093-.857.858-1.888 1.286-3.093 1.285H11.677z"/><defs><linearGradient id="a" x1="27" x2="27" y1="16.702" y2="49.164" gradientUnits="userSpaceOnUse"><stop stop-color="#fff"/><stop offset="1" stop-color="#4D4D4D"/></linearGradient></defs></svg>