<svg xmlns="http://www.w3.org/2000/svg" width="752" height="427" fill="none"><path fill="#0A0A0A" d="M0 0h752v427H0z"/><path stroke="#3E3E41" stroke-dasharray="1.78 14.22" stroke-width=".889" d="M38 49.556h676m-676 56h676m-676 56h676m-676 56h676m-676 56h676m-676 56h676m-676 56h676"/><path fill="url(#a)" d="M82 262a8 8 0 0 1 8-8h6a8 8 0 0 1 8 8v124H82V262z"/><path fill="#7545FF" d="M112 285a8 8 0 0 1 8-8h6a8 8 0 0 1 8 8v101h-22V285z"/><path fill="url(#b)" d="M189 327a8 8 0 0 1 8-8h6a8 8 0 0 1 8 8v59h-22v-59z"/><path fill="#7545FF" d="M219 232a8 8 0 0 1 8-8h6a8 8 0 0 1 8 8v154h-22V232z"/><path fill="url(#c)" d="M296 286a8 8 0 0 1 8-8h6a8 8 0 0 1 8 8v100h-22V286z"/><path fill="#7545FF" d="M326 181a8 8 0 0 1 8-8h6a8 8 0 0 1 8 8v205h-22V181z"/><path fill="url(#d)" d="M403 251a8 8 0 0 1 8-8h6a8 8 0 0 1 8 8v135h-22V251z"/><path fill="#7545FF" d="M433 292a8 8 0 0 1 8-8h6a8 8 0 0 1 8 8v94h-22v-94z"/><path fill="url(#e)" d="M510 212a8 8 0 0 1 8-8h6a8 8 0 0 1 8 8v174h-22V212z"/><path fill="#7545FF" d="M540 139a8 8 0 0 1 8-8h6a8 8 0 0 1 8 8v247h-22V139z"/><path fill="url(#f)" d="M617 251a8 8 0 0 1 8-8h6a8 8 0 0 1 8 8v135h-22V251z"/><path fill="#7545FF" d="M647 292a8 8 0 0 1 8-8h6a8 8 0 0 1 8 8v94h-22v-94z"/><g clip-path="url(#g)"><path fill="url(#h)" d="M106.825 280.829-13 299.549V355c0 12.15 9.85 22 22 22h722c12.15 0 22-9.85 22-22v-78.879l-95.951 48.711a22 22 0 0 1-22.279-1.391l-87.219-58.957a22 22 0 0 0-24.954.215l-82.162 57.625a22 22 0 0 1-24.296.642l-86.682-54.199a22 22 0 0 0-18.928-2.112l-88.543 30.975a22 22 0 0 1-11.204.878l-96.622-17.587a22 22 0 0 0-7.335-.092z"/><path stroke="url(#i)" stroke-width="2" d="m-13 299.727 119.81-18.794a21.988 21.988 0 0 1 7.364.093l96.586 17.652a22.01 22.01 0 0 0 11.246-.885l88.488-31.083a22.003 22.003 0 0 1 18.988 2.125l86.621 54.382a22 22 0 0 0 24.365-.645l82.123-57.834a22.001 22.001 0 0 1 24.984-.241l87.632 59.211a22 22 0 0 0 22.377 1.336L752 276.5"/></g><defs><linearGradient id="a" x1="93" x2="93" y1="254" y2="392.408" gradientUnits="userSpaceOnUse"><stop stop-color="#525252"/><stop offset=".523" stop-color="#1C1C1C"/><stop offset="1" stop-color="#222" stop-opacity=".2"/></linearGradient><linearGradient id="b" x1="200" x2="200" y1="319" y2="389.252" gradientUnits="userSpaceOnUse"><stop stop-color="#525252"/><stop offset=".523" stop-color="#1C1C1C"/><stop offset="1" stop-color="#222" stop-opacity=".2"/></linearGradient><linearGradient id="c" x1="307" x2="307" y1="278" y2="391.243" gradientUnits="userSpaceOnUse"><stop stop-color="#525252"/><stop offset=".523" stop-color="#1C1C1C"/><stop offset="1" stop-color="#222" stop-opacity=".2"/></linearGradient><linearGradient id="d" x1="414" x2="414" y1="243" y2="392.942" gradientUnits="userSpaceOnUse"><stop stop-color="#525252"/><stop offset=".523" stop-color="#1C1C1C"/><stop offset="1" stop-color="#222" stop-opacity=".2"/></linearGradient><linearGradient id="e" x1="521" x2="521" y1="204" y2="394.835" gradientUnits="userSpaceOnUse"><stop stop-color="#525252"/><stop offset=".523" stop-color="#1C1C1C"/><stop offset="1" stop-color="#222" stop-opacity=".2"/></linearGradient><linearGradient id="f" x1="628" x2="628" y1="243" y2="392.942" gradientUnits="userSpaceOnUse"><stop stop-color="#525252"/><stop offset=".523" stop-color="#1C1C1C"/><stop offset="1" stop-color="#222" stop-opacity=".2"/></linearGradient><linearGradient id="h" x1="418" x2="418" y1="276.121" y2="372.039" gradientUnits="userSpaceOnUse"><stop stop-color="#0CC6B0" stop-opacity=".09"/><stop offset="1" stop-opacity="0"/></linearGradient><linearGradient id="i" x1="17.5" x2="752" y1="294" y2="293.5" gradientUnits="userSpaceOnUse"><stop offset=".011" stop-color="#0CC6B0" stop-opacity="0"/><stop offset=".519" stop-color="#0CC6B0"/><stop offset="1" stop-color="#0CC6B0" stop-opacity="0"/></linearGradient><clipPath id="g"><path fill="#fff" d="M0 256h752v121H0z"/></clipPath></defs></svg>