<svg xmlns="http://www.w3.org/2000/svg" width="20" height="20" fill="none"><path fill="#fff" d="M15.545 4.995c-1.02-.461-2.113-.8-3.256-.994a.048.048 0 0 0-.053.024c-.14.246-.296.568-.405.82a12.39 12.39 0 0 0-3.658 0 8.278 8.278 0 0 0-.412-.82.052.052 0 0 0-.052-.024 13.346 13.346 0 0 0-3.257.994.05.05 0 0 0-.022.018c-2.074 3.049-2.643 6.023-2.364 8.96.002.015.01.028.021.037a13.357 13.357 0 0 0 3.996 1.987.052.052 0 0 0 .056-.018c.307-.413.582-.85.817-1.308a.05.05 0 0 0-.028-.07 8.881 8.881 0 0 1-1.248-.585.05.05 0 0 1-.005-.084c.083-.062.167-.126.247-.191a.05.05 0 0 1 .052-.007c2.619 1.176 5.454 1.176 8.042 0a.05.05 0 0 1 .052.006c.08.065.164.13.248.192a.05.05 0 0 1-.004.084c-.399.23-.813.423-1.25.585a.05.05 0 0 0-.027.07c.241.459.515.894.817 1.308a.051.051 0 0 0 .056.019 13.309 13.309 0 0 0 4.002-1.987.053.053 0 0 0 .021-.036c.334-3.396-.559-6.346-2.366-8.96a.043.043 0 0 0-.02-.02zm-8.199 7.19c-.789 0-1.438-.712-1.438-1.587 0-.874.638-1.586 1.438-1.586.8 0 1.451.719 1.438 1.586 0 .875-.637 1.586-1.438 1.586zm5.317 0c-.788 0-1.437-.712-1.437-1.587 0-.874.637-1.586 1.437-1.586s1.451.719 1.438 1.586c0 .875-.63 1.586-1.438 1.586z"/></svg>