<svg xmlns="http://www.w3.org/2000/svg" width="128" height="62" fill="none"><rect width="128" height="62" fill="#1C1C1C" rx="8"/><rect width="16" height="16" x="8" y="9" fill="#7545FF" rx="4"/><path fill="#898B8E" d="M36.36 21.117c-.75 0-1.422-.18-2.016-.539-.594-.36-1.063-.873-1.407-1.54-.343-.673-.515-1.472-.515-2.397 0-.934.172-1.735.516-2.403.343-.672.812-1.187 1.406-1.547.593-.359 1.265-.539 2.015-.539.758 0 1.432.18 2.022.54.59.359 1.054.874 1.394 1.546.344.668.516 1.469.516 2.403 0 .93-.172 1.728-.516 2.396-.34.668-.804 1.182-1.394 1.541-.59.36-1.264.54-2.022.54zm0-1.201c.503 0 .953-.125 1.347-.375.395-.25.705-.62.932-1.107.23-.489.345-1.086.345-1.793 0-.711-.115-1.31-.345-1.8-.227-.491-.537-.862-.932-1.112a2.464 2.464 0 0 0-1.348-.375c-.5 0-.949.125-1.347.375-.395.25-.707.62-.938 1.113-.23.488-.346 1.088-.346 1.799 0 .707.116 1.304.346 1.793.23.488.543.857.938 1.107.398.25.847.375 1.347.375zM41.327 21v-6.55h1.225v1.048h.07c.121-.351.332-.629.633-.832a1.79 1.79 0 0 1 1.031-.31c.078 0 .17.003.276.011.109.004.197.01.263.018v1.219a3.265 3.265 0 0 0-.668-.07c-.3 0-.57.064-.808.193a1.43 1.43 0 0 0-.557.521c-.133.219-.2.473-.2.762V21h-1.265zm5.953.14c-.414 0-.789-.076-1.125-.228a1.88 1.88 0 0 1-.797-.68c-.195-.296-.293-.658-.293-1.084 0-.37.07-.673.211-.908.145-.238.338-.427.58-.568.243-.14.512-.246.809-.317.297-.07.602-.125.914-.164.395-.043.713-.08.955-.11.242-.032.418-.081.528-.147.113-.07.17-.182.17-.334v-.03c0-.37-.106-.658-.317-.861-.207-.203-.516-.305-.926-.305-.425 0-.763.094-1.013.281a1.473 1.473 0 0 0-.51.627l-1.201-.275c.144-.398.353-.719.627-.96.277-.247.593-.427.949-.54a3.72 3.72 0 0 1 1.125-.17c.261 0 .539.031.832.094.293.059.568.17.826.334.262.16.475.39.639.691.164.301.246.69.246 1.166V21h-1.248v-.896h-.047a1.95 1.95 0 0 1-1.002.879 2.458 2.458 0 0 1-.932.158zm.276-1.019c.355 0 .658-.068.908-.205a1.5 1.5 0 0 0 .574-.55c.133-.227.2-.468.2-.721v-.85a.72.72 0 0 1-.264.123 3.541 3.541 0 0 1-.44.1c-.164.027-.324.052-.48.076-.157.02-.287.035-.393.047a3.34 3.34 0 0 0-.674.164c-.203.07-.367.175-.492.316-.121.137-.181.319-.181.545 0 .316.117.555.351.715.234.16.531.24.89.24zm6.908 3.469c-.781 0-1.397-.147-1.846-.44-.45-.293-.76-.64-.931-1.043l1.09-.45c.078.124.181.257.31.398.133.14.31.26.533.357.223.098.51.147.861.147.48 0 .88-.118 1.196-.352.316-.23.474-.602.474-1.113V19.81h-.087c-.07.137-.178.292-.323.463a1.87 1.87 0 0 1-.592.44c-.25.125-.576.187-.978.187a2.71 2.71 0 0 1-1.395-.363c-.41-.246-.738-.605-.984-1.078-.242-.477-.363-1.063-.363-1.758 0-.695.119-1.29.357-1.787.242-.5.57-.883.985-1.148a2.558 2.558 0 0 1 1.412-.399c.406 0 .734.068.984.205.254.133.451.29.592.469.14.18.25.338.328.475h.094v-1.067h1.236v6.697c0 .563-.13 1.024-.393 1.383-.257.36-.609.625-1.054.797a4.073 4.073 0 0 1-1.506.264zm-.012-3.75c.55 0 .973-.19 1.266-.569.297-.382.445-.912.445-1.587 0-.442-.064-.829-.193-1.16a1.706 1.706 0 0 0-.574-.786c-.254-.191-.569-.287-.944-.287-.383 0-.703.1-.96.299a1.78 1.78 0 0 0-.575.803 3.136 3.136 0 0 0-.193 1.13c0 .426.064.803.193 1.131.129.325.322.577.58.756.262.18.58.27.955.27zm5.45-2.725V21h-1.266v-6.55h1.23v1.077h.088c.148-.355.38-.636.697-.843.317-.211.723-.317 1.22-.317.444 0 .833.094 1.165.281.336.184.596.46.78.827.187.367.28.822.28 1.365V21h-1.265v-4.008c0-.473-.125-.844-.375-1.113-.25-.274-.59-.41-1.02-.41-.292 0-.556.066-.79.199a1.373 1.373 0 0 0-.545.557c-.133.242-.2.539-.2.89zM65.315 21v-6.55h1.266V21h-1.266zm.64-7.559a.795.795 0 0 1-.57-.222.71.71 0 0 1-.234-.534c0-.21.079-.39.235-.539a.795.795 0 0 1 .568-.222c.219 0 .406.074.563.223.16.148.24.328.24.538 0 .208-.08.385-.24.534a.788.788 0 0 1-.563.222zm4.593 7.694c-.63 0-1.172-.145-1.63-.434a2.853 2.853 0 0 1-1.054-1.195c-.246-.508-.369-1.09-.369-1.746 0-.668.125-1.256.375-1.764.254-.512.608-.91 1.06-1.195.458-.29.993-.434 1.606-.434.5 0 .944.092 1.33.276a2.31 2.31 0 0 1 1.371 1.927h-1.242a1.46 1.46 0 0 0-.252-.568 1.296 1.296 0 0 0-.48-.41 1.543 1.543 0 0 0-.71-.152c-.355 0-.665.093-.931.28a1.815 1.815 0 0 0-.615.792c-.149.343-.223.75-.223 1.218 0 .473.072.885.217 1.237.145.351.35.623.615.814a1.6 1.6 0 0 0 .938.282c.367 0 .68-.102.937-.305.262-.203.43-.48.504-.832h1.242c-.043.426-.18.805-.41 1.137-.23.332-.539.593-.926.785-.386.191-.838.287-1.353.287z"/><path fill="#fff" d="M8.547 45.727v-1.414l5.023-7.954h1.117v2.094h-.718l-3.594 5.688v.093h6.898v1.493H8.547zm5.5 2.273v-2.703l.015-.649V36.36h1.672V48h-1.687zm8.078 0v-1.266l3.938-4.093c.416-.438.76-.823 1.03-1.157a4.37 4.37 0 0 0 .618-.96c.14-.303.21-.623.21-.962 0-.39-.09-.726-.273-1.007a1.796 1.796 0 0 0-.742-.649 2.411 2.411 0 0 0-1.062-.226c-.417 0-.779.086-1.086.258a1.77 1.77 0 0 0-.719.718c-.167.308-.25.67-.25 1.086h-1.672c0-.708.162-1.328.485-1.86a3.342 3.342 0 0 1 1.343-1.234c.573-.296 1.22-.445 1.938-.445.734 0 1.38.146 1.937.438.558.291.992.687 1.305 1.187a3.08 3.08 0 0 1 .469 1.68c0 .432-.081.854-.242 1.265-.157.412-.435.873-.836 1.383-.396.505-.948 1.115-1.657 1.828l-2.312 2.422v.094h5.234V48h-7.656zm13.195.156c-.786 0-1.484-.133-2.093-.398-.61-.271-1.092-.646-1.446-1.125a2.892 2.892 0 0 1-.562-1.664h1.765c.026.343.144.64.352.89s.482.446.82.586a3.11 3.11 0 0 0 1.149.203c.458 0 .864-.08 1.218-.242a2 2 0 0 0 .829-.664 1.67 1.67 0 0 0 .304-.992c0-.39-.099-.734-.297-1.031-.198-.302-.487-.537-.867-.703-.38-.167-.838-.25-1.375-.25h-.992v-1.438h.992a2.61 2.61 0 0 0 1.133-.234c.328-.157.583-.373.766-.649.187-.276.28-.601.28-.976 0-.36-.08-.672-.241-.938a1.612 1.612 0 0 0-.68-.625 2.226 2.226 0 0 0-1.031-.226c-.38 0-.735.067-1.063.203a1.99 1.99 0 0 0-.804.586c-.204.25-.31.554-.32.914H31.46c.016-.63.198-1.183.547-1.656.354-.48.823-.852 1.406-1.118a4.615 4.615 0 0 1 1.953-.406c.745 0 1.388.146 1.93.438a3.17 3.17 0 0 1 1.266 1.156c.296.479.445 1.003.445 1.57 0 .662-.183 1.219-.547 1.672-.365.448-.852.753-1.461.914v.086c.77.12 1.367.427 1.79.922.426.495.64 1.11.64 1.844 0 .64-.18 1.213-.54 1.718-.354.506-.84.904-1.46 1.196-.615.291-1.318.437-2.11.437zm5.352-2.43v-1.413l5.023-7.954h1.117v2.094h-.718L42.5 44.141v.093h6.898v1.493h-8.726zm5.5 2.274v-2.703l.016-.649V36.36h1.671V48h-1.687z"/><path fill="#898B8E" d="M57.201 49.272V36.543h.807v12.729H57.2zm.397-1.094c-.73 0-1.36-.116-1.894-.349-.533-.237-.952-.565-1.258-.984a2.85 2.85 0 0 1-.512-1.47h1.271c.037.383.166.7.39.95.228.25.517.438.868.56.35.124.73.185 1.135.185.47 0 .89-.077 1.264-.232.379-.155.677-.371.896-.65a1.53 1.53 0 0 0 .328-.977c0-.337-.096-.61-.287-.82a2.133 2.133 0 0 0-.752-.513 7.755 7.755 0 0 0-.998-.349l-1.244-.355c-.798-.228-1.429-.554-1.894-.978-.46-.428-.69-.986-.69-1.674 0-.57.152-1.067.458-1.49a3.06 3.06 0 0 1 1.25-.999 4.263 4.263 0 0 1 1.764-.355c.657 0 1.24.118 1.75.355.51.233.916.552 1.217.957.3.401.46.857.479 1.367h-1.204c-.059-.5-.3-.89-.724-1.169-.42-.278-.939-.416-1.559-.416-.446 0-.838.072-1.175.218-.338.146-.6.347-.787.602-.186.255-.28.547-.28.875 0 .36.112.651.335.875.223.218.488.39.793.513.31.123.59.22.84.293l1.026.287c.265.073.559.171.882.294.328.123.643.29.944.5.305.21.556.478.751.806.196.324.294.725.294 1.203 0 .547-.143 1.044-.43 1.49-.287.443-.704.796-1.251 1.06-.547.26-1.212.39-1.996.39z"/><path stroke="#2B2D2F" d="M74.5 32.5v19"/><path fill="#fff" d="M90.836 48.156c-.787 0-1.484-.133-2.094-.398-.61-.271-1.091-.646-1.445-1.125a2.891 2.891 0 0 1-.563-1.664H88.5c.026.343.143.64.352.89.208.25.481.446.82.586a3.11 3.11 0 0 0 1.148.203c.459 0 .865-.08 1.22-.242.353-.161.63-.383.827-.664.203-.286.305-.617.305-.992 0-.39-.1-.734-.297-1.031-.198-.302-.487-.537-.867-.703-.38-.167-.839-.25-1.375-.25h-.992v-1.438h.992a2.61 2.61 0 0 0 1.133-.234 1.84 1.84 0 0 0 .765-.649 1.69 1.69 0 0 0 .281-.976c0-.36-.08-.672-.242-.938a1.611 1.611 0 0 0-.68-.625 2.222 2.222 0 0 0-1.03-.226c-.38 0-.735.067-1.063.203a2 2 0 0 0-.805.586 1.47 1.47 0 0 0-.32.914h-1.695c.015-.63.197-1.183.546-1.656a3.53 3.53 0 0 1 1.407-1.118 4.615 4.615 0 0 1 1.953-.406c.745 0 1.388.146 1.93.438a3.17 3.17 0 0 1 1.265 1.156c.297.479.445 1.003.445 1.57 0 .662-.182 1.219-.546 1.672-.365.448-.852.753-1.461.914v.086c.77.12 1.367.427 1.789.922.427.495.64 1.11.64 1.844 0 .64-.18 1.213-.539 1.718-.354.506-.84.904-1.46 1.196-.615.291-1.318.437-2.11.437zm9.617 0a4.482 4.482 0 0 1-1.531-.273 3.572 3.572 0 0 1-1.367-.906c-.407-.427-.735-1-.985-1.72-.244-.718-.367-1.611-.367-2.679 0-1.016.102-1.917.305-2.703.208-.792.502-1.458.883-2a3.89 3.89 0 0 1 1.39-1.242c.542-.287 1.151-.43 1.828-.43.693 0 1.308.138 1.844.414.537.271.971.646 1.305 1.125a3.66 3.66 0 0 1 .633 1.64h-1.719a2.22 2.22 0 0 0-.703-1.179c-.349-.307-.802-.46-1.36-.46-.854 0-1.52.372-2 1.116-.474.74-.71 1.771-.71 3.094h.085c.204-.328.45-.61.743-.844a3.15 3.15 0 0 1 .976-.547 3.567 3.567 0 0 1 1.164-.187c.672 0 1.281.164 1.828.492.552.328.99.781 1.313 1.36.328.573.492 1.231.492 1.976 0 .74-.169 1.409-.508 2.008a3.666 3.666 0 0 1-1.414 1.422c-.604.349-1.312.523-2.125.523zm-.008-1.476c.448 0 .847-.11 1.196-.328.354-.22.635-.513.843-.883.209-.375.313-.792.313-1.25 0-.448-.102-.854-.305-1.219a2.264 2.264 0 0 0-.82-.867 2.166 2.166 0 0 0-1.188-.328 2.23 2.23 0 0 0-1.203.336c-.36.224-.646.52-.86.89a2.41 2.41 0 0 0-.312 1.203c0 .433.102.836.305 1.211.203.375.48.675.828.899.354.224.755.336 1.203.336z"/><path fill="#898B8E" d="M114.545 46.086v-.533c0-.374.075-.716.226-1.026.154-.31.38-.558.676-.745.296-.187.657-.28 1.08-.28.433 0 .796.093 1.087.28.292.187.511.435.657.745.15.31.225.652.225 1.026v.533c0 .374-.075.715-.225 1.025-.151.31-.372.559-.664.745-.291.187-.651.28-1.08.28-.428 0-.79-.093-1.087-.28a1.787 1.787 0 0 1-.669-.745 2.31 2.31 0 0 1-.226-1.025zm1.012-.533v.533c0 .31.073.588.218.834.146.241.397.364.752.37.351-.005.597-.129.739-.37.145-.246.218-.524.218-.834v-.533a1.6 1.6 0 0 0-.212-.827c-.136-.242-.385-.363-.745-.363-.346 0-.594.121-.745.363-.15.241-.225.517-.225.827zm-6.084-5.291v-.534c0-.373.077-.715.232-1.025.155-.31.378-.558.67-.745.296-.187.656-.28 1.08-.28.433 0 .795.093 1.087.28.296.187.517.435.663.745.15.31.223.652.219 1.025v.534a2.23 2.23 0 0 1-.226 1.025 1.8 1.8 0 0 1-.663.745c-.292.187-.652.28-1.08.28-.428 0-.791-.093-1.087-.28a1.796 1.796 0 0 1-.67-.745 2.35 2.35 0 0 1-.225-1.025zm1.011-.534v.534c0 .31.073.588.219.834.146.241.397.36.752.355.351.005.597-.114.738-.355.146-.246.219-.524.219-.834v-.534c0-.31-.071-.585-.212-.827-.137-.246-.385-.367-.745-.362-.346-.005-.595.116-.745.362-.15.242-.226.518-.226.827zM109.855 48l7-10.185h1.135l-7 10.185h-1.135z"/></svg>