<svg xmlns="http://www.w3.org/2000/svg" width="20" height="20" fill="none"><path fill="#fff" d="M3.421 5.77C3.14 5.463 3 5.08 3 4.627c0-.455.14-.853.421-1.163C3.702 3.155 4.064 3 4.507 3c.444 0 .792.155 1.072.463.281.309.421.697.421 1.163 0 .466-.14.836-.421 1.145a1.386 1.386 0 0 1-1.072.463c-.433 0-.805-.155-1.086-.463zm2.343 1.77V17H3.236V7.54h2.528zm10.287.586c.633.751.949 1.782.949 3.094V17h-2.757v-5.373c0-.661-.157-1.176-.47-1.542-.314-.366-.736-.55-1.265-.55-.529 0-.951.183-1.264.55-.314.366-.471.88-.471 1.542V17H8V7.106h2.773v1.312c.28-.437.66-.783 1.135-1.037A3.35 3.35 0 0 1 13.514 7c1.059 0 1.905.375 2.537 1.126z"/></svg>