<svg xmlns="http://www.w3.org/2000/svg" width="707" height="707" fill="none"><g opacity=".5"><mask id="b" fill="#fff"><path d="M353.487 704.317a1.844 1.844 0 0 1-1.851 1.846 353.352 353.352 0 0 1-173.058-46.317A352.825 352.825 0 0 1 49.625 533.052 352.293 352.293 0 0 1 .507 359.099a352.27 352.27 0 0 1 42.735-173.784 1.845 1.845 0 0 1 2.51-.733 1.86 1.86 0 0 1 .734 2.519 348.575 348.575 0 0 0-42.275 171.94 348.6 348.6 0 0 0 48.602 172.128 349.124 349.124 0 0 0 127.601 125.463 349.623 349.623 0 0 0 171.222 45.83 1.86 1.86 0 0 1 1.851 1.855z"/></mask><path stroke="url(#a)" stroke-width="103.283" d="M353.487 704.317a1.844 1.844 0 0 1-1.851 1.846 353.352 353.352 0 0 1-173.058-46.317A352.825 352.825 0 0 1 49.625 533.052 352.293 352.293 0 0 1 .507 359.099a352.27 352.27 0 0 1 42.735-173.784 1.845 1.845 0 0 1 2.51-.733 1.86 1.86 0 0 1 .734 2.519 348.575 348.575 0 0 0-42.275 171.94 348.6 348.6 0 0 0 48.602 172.128 349.124 349.124 0 0 0 127.601 125.463 349.623 349.623 0 0 0 171.222 45.83 1.86 1.86 0 0 1 1.851 1.855z" mask="url(#b)"/></g><defs><linearGradient id="a" x1="353.487" x2="57.175" y1="706.168" y2="417.669" gradientUnits="userSpaceOnUse"><stop offset=".06" stop-color="#50B18E"/><stop offset="1" stop-color="#737373" stop-opacity="0"/></linearGradient></defs></svg>