<svg xmlns="http://www.w3.org/2000/svg" width="841" height="841" fill="none"><mask id="b" fill="#fff"><path d="M16.866 420.725c-9.278 0-16.835-7.526-16.464-16.797A420.002 420.002 0 0 1 413.469.776a420 420 0 0 1 194.053 44.102c8.303 4.142 11.257 14.389 6.787 22.52-4.47 8.13-14.67 11.063-22.987 6.95A386.403 386.403 0 0 0 84.427 229.28a386.4 386.4 0 0 0-50.396 174.65c-.403 9.27-7.887 16.796-17.165 16.796z"/></mask><path stroke="url(#a)" stroke-width="103.283" d="M16.866 420.725c-9.278 0-16.835-7.526-16.464-16.797A420.002 420.002 0 0 1 413.469.776a420 420 0 0 1 194.053 44.102c8.303 4.142 11.257 14.389 6.787 22.52-4.47 8.13-14.67 11.063-22.987 6.95A386.403 386.403 0 0 0 84.427 229.28a386.4 386.4 0 0 0-50.396 174.65c-.403 9.27-7.887 16.796-17.165 16.796z" mask="url(#b)"/><defs><linearGradient id="a" x1=".066" x2="343.289" y1="420.724" y2="67.791" gradientUnits="userSpaceOnUse"><stop stop-color="#583DFF"/><stop offset="1" stop-opacity="0"/></linearGradient></defs></svg>