<svg xmlns="http://www.w3.org/2000/svg" width="20" height="20" fill="none"><path fill="#fff" d="M17.864 7.217c-.099-1.02-.31-2.148-1.088-2.741-.603-.46-1.396-.477-2.135-.476l-4.692.004-4.512.005c-.629 0-1.24-.052-1.823.24-.501.251-.893.729-1.13 1.26-.327.74-.395 1.577-.435 2.394a41.706 41.706 0 0 0 .022 4.468c.064 1.086.227 2.286 1.007 2.978.691.612 1.667.642 2.564.643l8.541.008c.366 0 .746-.007 1.118-.05.732-.085 1.43-.31 1.9-.894.475-.588.597-1.406.669-2.181a30.09 30.09 0 0 0-.006-5.658zm-9.562 5.419V7.364L12.546 10l-4.244 2.637z"/></svg>