<svg xmlns="http://www.w3.org/2000/svg" width="840" height="840" fill="none"><mask id="b" fill="#fff"><path d="M823.218 419.943c9.272 0 16.824 7.52 16.453 16.785a419.725 419.725 0 0 1-606.722 358.815c-8.298-4.139-11.25-14.38-6.783-22.505 4.467-8.125 14.661-11.056 22.973-6.946a386.148 386.148 0 0 0 556.925-329.365c.403-9.263 7.882-16.784 17.154-16.784z"/></mask><path stroke="url(#a)" stroke-width="103.283" d="M823.218 419.943c9.272 0 16.824 7.52 16.453 16.785a419.725 419.725 0 0 1-606.722 358.815c-8.298-4.139-11.25-14.38-6.783-22.505 4.467-8.125 14.661-11.056 22.973-6.946a386.148 386.148 0 0 0 556.925-329.365c.403-9.263 7.882-16.784 17.154-16.784z" mask="url(#b)"/><defs><linearGradient id="a" x1="840.007" x2="485.947" y1="419.943" y2="799.05" gradientUnits="userSpaceOnUse"><stop offset=".06" stop-color="#07BDA7"/><stop offset="1" stop-opacity="0"/></linearGradient></defs></svg>