<svg xmlns="http://www.w3.org/2000/svg" width="702" height="701" fill="none"><g opacity=".3"><mask id="b" fill="#fff"><path d="M2.088 350.331c-.7 0-1.27-.569-1.267-1.27A350.24 350.24 0 0 1 345.561.131 350.24 350.24 0 0 1 518.679 42.8c.616.335.84 1.107.503 1.721a1.274 1.274 0 0 1-1.726.503A347.703 347.703 0 0 0 3.36 349.061a1.274 1.274 0 0 1-1.272 1.27z"/></mask><path stroke="url(#a)" stroke-width="103.283" d="M2.088 350.331c-.7 0-1.27-.569-1.267-1.27A350.24 350.24 0 0 1 345.561.131 350.24 350.24 0 0 1 518.679 42.8c.616.335.84 1.107.503 1.721a1.274 1.274 0 0 1-1.726.503A347.703 347.703 0 0 0 3.36 349.061a1.274 1.274 0 0 1-1.272 1.27z" mask="url(#b)"/></g><defs><linearGradient id="a" x1=".819" x2="227.068" y1="350.331" y2="88.895" gradientUnits="userSpaceOnUse"><stop offset=".06" stop-color="#7545FF"/><stop offset="1" stop-opacity="0"/></linearGradient></defs></svg>