<svg xmlns="http://www.w3.org/2000/svg" width="81" height="80" fill="none"><path fill="url(#a)" d="M38.06 68.957 16.78 56.69a5.227 5.227 0 0 1-1.98-1.966 5.314 5.314 0 0 1-.713-2.69V27.967c0-.964.238-1.861.714-2.69a5.227 5.227 0 0 1 1.98-1.967l21.28-12.266a5.347 5.347 0 0 1 2.693-.724c.951 0 1.849.241 2.693.724l21.28 12.266a5.227 5.227 0 0 1 1.98 1.967c.476.829.714 1.726.714 2.69v24.067c0 .964-.238 1.86-.714 2.69a5.227 5.227 0 0 1-1.98 1.966l-21.28 12.267a5.347 5.347 0 0 1-2.693.723 5.347 5.347 0 0 1-2.693-.723zm1.027-28V65.71l.767.444c.3.17.6.256.9.256.3 0 .6-.085.9-.256l.767-.444V40.957L64.087 28.41v-.806a1.44 1.44 0 0 0-.16-.644 1.194 1.194 0 0 0-.48-.51l-1.276-.74-21.417 12.38-21.417-12.38-1.276.74a1.22 1.22 0 0 0-.48.51c-.107.216-.16.43-.16.644v.806l21.666 12.547z"/><defs><linearGradient id="a" x1="40.754" x2="40.754" y1="24.486" y2="73.39" gradientUnits="userSpaceOnUse"><stop stop-color="#fff"/><stop offset="1" stop-color="#4D4D4D"/></linearGradient></defs></svg>