<svg xmlns="http://www.w3.org/2000/svg" width="47" height="46" fill="none"><path fill="url(#a)" d="M6.504 9.583a3.833 3.833 0 0 1 3.833-3.833h26.834a3.833 3.833 0 0 1 3.833 3.833v26.834a3.833 3.833 0 0 1-3.833 3.833H10.337a3.833 3.833 0 0 1-3.833-3.833V9.583zm18.208 11.5h-1.916a2.875 2.875 0 0 1 0-5.75h1.916a2.875 2.875 0 0 1 2.875 2.875h3.834a6.708 6.708 0 0 0-6.709-6.708h-1.916a6.708 6.708 0 1 0 0 13.417h1.916a2.875 2.875 0 0 1 0 5.75h-1.916a2.875 2.875 0 0 1-2.875-2.875h-3.834a6.708 6.708 0 0 0 6.709 6.708h1.916a6.708 6.708 0 1 0 0-13.417z"/><defs><linearGradient id="a" x1="23.754" x2="23.754" y1="13.983" y2="42.406" gradientUnits="userSpaceOnUse"><stop stop-color="#fff"/><stop offset="1" stop-color="#4D4D4D"/></linearGradient></defs></svg>